<svg clip-rule="evenodd" fill-rule="evenodd" stroke-linejoin="round" stroke-miterlimit="2" viewBox="0 0 3400 3400" xmlns="http://www.w3.org/2000/svg" shape-rendering="crispEdges"><g fill-rule="nonzero" transform="translate(-1 -1) scale(1.0012)"><path d="m2719.119023 2282.36h97.06v97.05h-97.06z" fill="#333"/><path d="m2719.119023 2185.3h97.06v97.06h-97.06z" fill="#333"/><path d="m2719.119023 2088.23h97.06v97.07h-97.06z" fill="#333"/><path d="m2719.119023 1991.17h97.06v97.06h-97.06z" fill="#333"/><path d="m2719.119023 1894.11h97.06v97.06h-97.06z" fill="#333"/><path d="m2622.059023 2476.47h97.06v97.06h-97.06z" fill="#333"/><path d="m2622.059023 2379.41h97.06v97.06h-97.06z" fill="#333"/><path d="m2622.059023 2282.36h97.06v97.05h-97.06z" fill="#fec700"/><path d="m2622.059023 2185.3h97.06v97.06h-97.06z" fill="#fec700"/><path d="m2622.059023 2088.23h97.06v97.07h-97.06z" fill="#fec700"/><path d="m2622.059023 1991.17h97.06v97.06h-97.06z" fill="#fec700"/><path d="m2622.059023 1894.11h97.06v97.06h-97.06z" fill="#fec700"/><path d="m2622.059023 1797.06h97.06v97.05h-97.06z" fill="#333"/><path d="m2622.059023 1700h97.06v97.06h-97.06z" fill="#333"/><path d="m2525.009023 2670.59h97.05v97.05h-97.05z" fill="#333"/><path d="m2525.009023 2573.53h97.05v97.06h-97.05z" fill="#333"/><path d="m2525.009023 2476.47h97.05v97.06h-97.05z" fill="#fec700"/><path d="m2525.009023 2379.41h97.05v97.06h-97.05z" fill="#fec700"/><path d="m2525.009023 2282.36h97.05v97.05h-97.05z" fill="#ffe900"/><path d="m2525.009023 2185.3h97.05v97.06h-97.05z" fill="#ffe900"/><path d="m2525.009023 2088.23h97.05v97.07h-97.05z" fill="#ffe900"/><path d="m2525.009023 1991.17h97.05v97.06h-97.05z" fill="#ffe900"/><path d="m2525.009023 1894.11h97.05v97.06h-97.05z" fill="#fec700"/><path d="m2525.009023 1797.06h97.05v97.05h-97.05z" fill="#fec700"/><path d="m2525.009023 1700h97.05v97.06h-97.05z" fill="#fec700"/><path d="m2525.009023 1602.94h97.05v97.06h-97.05z" fill="#333"/><path d="m2525.009023 1505.89h97.05v97.05h-97.05z" fill="#333"/><path d="m2427.949023 2767.64h97.06v97.07h-97.06z" fill="#333"/><path d="m2427.949023 2670.59h97.06v97.05h-97.06z" fill="#fec700"/><path d="m2427.949023 2573.53h97.06v97.06h-97.06z" fill="#fec700"/><path d="m2427.949023 2476.47h97.06v97.06h-97.06z" fill="#ffe900"/><path d="m2427.949023 2379.41h97.06v97.06h-97.06z" fill="#ffe900"/><path d="m2427.949023 2282.36h97.06v97.05h-97.06z" fill="#ffe900"/><path d="m2427.949023 2185.3h97.06v97.06h-97.06z" fill="#ffe900"/><path d="m2427.949023 2088.23h97.06v97.07h-97.06z"/><path d="m2427.949023 1991.17h97.06v97.06h-97.06z"/><path d="m2427.949023 1894.11h97.06v97.06h-97.06z"/><path d="m2427.949023 1797.06h97.06v97.05h-97.06z"/><path d="m2427.949023 1700h97.06v97.06h-97.06z" fill="#ffe900"/><path d="m2427.949023 1602.94h97.06v97.06h-97.06z" fill="#fec700"/><path d="m2427.949023 1505.89h97.06v97.05h-97.06z" fill="#fec700"/><path d="m2427.949023 1408.82h97.06v97.07h-97.06z" fill="#333"/><path d="m2330.879023 2864.71h97.07v97.06h-97.07z" fill="#333"/><path d="m2330.879023 2767.64h97.07v97.07h-97.07z" fill="#fec700"/><path d="m2330.879023 2670.59h97.07v97.05h-97.07z" fill="#ffe900"/><path d="m2330.879023 2573.53h97.07v97.06h-97.07z" fill="#ffe900"/><path d="m2330.879023 2476.47h97.07v97.06h-97.07z" fill="#ffe900"/><path d="m2330.879023 2379.41h97.07v97.06h-97.07z" fill="#ffe900"/><path d="m2330.879023 2282.36h97.07v97.05h-97.07z" fill="#ffe900"/><path d="m2330.879023 2185.3h97.07v97.06h-97.07z"/><path d="m2330.879023 2088.23h97.07v97.07h-97.07z" fill="#fff"/><path d="m2330.879023 1991.17h97.07v97.06h-97.07z" fill="#fff"/><path d="m2330.879023 1894.11h97.07v97.06h-97.07z" fill="#fff"/><path d="m2330.879023 1797.06h97.07v97.05h-97.07z" fill="#fff"/><path d="m2330.879023 1700h97.07v97.06h-97.07z"/><path d="m2330.879023 1602.94h97.07v97.06h-97.07z" fill="#ffe900"/><path d="m2330.879023 1505.89h97.07v97.05h-97.07z" fill="#fec700"/><path d="m2330.879023 1408.82h97.07v97.07h-97.07z" fill="#fec700"/><path d="m2330.879023 1311.76h97.07v97.06h-97.07z" fill="#333"/><path d="m2233.819023 3155.89h97.06v97.05h-97.06z"/><path d="m2233.819023 3058.83h97.06v97.06h-97.06z"/><path d="m2233.819023 2961.77h97.06v97.06h-97.06z"/><path d="m2233.819023 2864.71h97.06v97.06h-97.06z"/><path d="m2233.819023 2767.64h97.06v97.07h-97.06z"/><path d="m2233.819023 2670.59h97.06v97.05h-97.06z"/><path d="m2233.819023 2573.53h97.06v97.06h-97.06z"/><path d="m2233.819023 2476.47h97.06v97.06h-97.06z"/><path d="m2233.819023 2379.41h97.06v97.06h-97.06z"/><path d="m2233.819023 2282.36h97.06v97.05h-97.06z"/><path d="m2233.819023 2185.3h97.06v97.06h-97.06z" fill="#fff"/><path d="m2233.819023 2088.23h97.06v97.07h-97.06z" fill="#fff"/><path d="m2233.819023 1991.17h97.06v97.06h-97.06z" fill="#fff"/><path d="m2233.819023 1894.11h97.06v97.06h-97.06z" fill="#fff"/><path d="m2233.819023 1797.06h97.06v97.05h-97.06z" fill="#fff"/><path d="m2233.819023 1700h97.06v97.06h-97.06z" fill="#fff"/><path d="m2233.819023 1602.94h97.06v97.06h-97.06z"/><path d="m2233.819023 1505.89h97.06v97.05h-97.06z" fill="#ffe900"/><path d="m2233.819023 1408.82h97.06v97.07h-97.06z" fill="#fec700"/><path d="m2233.819023 1311.76h97.06v97.06h-97.06z" fill="#fec700"/><path d="m2233.819023 1214.7h97.06v97.06h-97.06z" fill="#333"/><path d="m2233.819023 1020.59h97.06v97.05h-97.06z"/><path d="m2136.759023 3252.94h97.06v97.06h-97.06z"/><path d="m2136.759023 2961.77h97.06v97.06h-97.06z" fill="#333"/><path d="m2136.759023 2864.71h97.06v97.06h-97.06z" fill="#fec700"/><path d="m2136.759023 2767.64h97.06v97.07h-97.06z" fill="#ffe900"/><path d="m2136.759023 2670.59h97.06v97.05h-97.06z" fill="#ffe900"/><path d="m2136.759023 2573.53h97.06v97.06h-97.06z" fill="#ffe900"/><path d="m2136.759023 2476.47h97.06v97.06h-97.06z" fill="#ffe900"/><path d="m2136.759023 2379.41h97.06v97.06h-97.06z" fill="#ffe900"/><path d="m2136.759023 2282.36h97.06v97.05h-97.06z"/><path d="m2136.759023 2185.3h97.06v97.06h-97.06z" fill="#fff"/><path d="m2136.759023 2088.23h97.06v97.07h-97.06z" fill="#fff"/><path d="m2136.759023 1991.17h97.06v97.06h-97.06z" fill="#333"/><path d="m2136.759023 1894.11h97.06v97.06h-97.06z" fill="#333"/><path d="m2136.759023 1797.06h97.06v97.05h-97.06z" fill="#fff"/><path d="m2136.759023 1700h97.06v97.06h-97.06z" fill="#fff"/><path d="m2136.759023 1602.94h97.06v97.06h-97.06z"/><path d="m2136.759023 1505.89h97.06v97.05h-97.06z" fill="#ffe900"/><path d="m2136.759023 1408.82h97.06v97.07h-97.06z" fill="#ffe900"/><path d="m2136.759023 1311.76h97.06v97.06h-97.06z" fill="#fec700"/><path d="m2136.759023 1214.7h97.06v97.06h-97.06z" fill="#333"/><path d="m2136.759023 1117.64h97.06v97.06h-97.06z"/><path d="m2136.759023 1020.59h97.06v97.05h-97.06z" fill="#333"/><path d="m2136.759023 923.53h97.06v97.06h-97.06z"/><path d="m2039.709023 3058.83h97.05v97.06h-97.05z" fill="#333"/><path d="m2039.709023 2961.77h97.05v97.06h-97.05z" fill="#fec700"/><path d="m2039.709023 2864.71h97.05v97.06h-97.05z" fill="#ffe900"/><path d="m2039.709023 2767.64h97.05v97.07h-97.05z" fill="#ffe900"/><path d="m2039.709023 2670.59h97.05v97.05h-97.05z" fill="#ffe900"/><path d="m2039.709023 2573.53h97.05v97.06h-97.05z" fill="#ffe900"/><path d="m2039.709023 2476.47h97.05v97.06h-97.05z" fill="#ffe900"/><path d="m2039.709023 2379.41h97.05v97.06h-97.05z" fill="#ffe900"/><path d="m2039.709023 2282.36h97.05v97.05h-97.05z"/><path d="m2039.709023 2185.3h97.05v97.06h-97.05z" fill="#fff"/><path d="m2039.709023 2088.23h97.05v97.07h-97.05z" fill="#fff"/><path d="m2039.709023 1991.17h97.05v97.06h-97.05z" fill="#333"/><path d="m2039.709023 1894.11h97.05v97.06h-97.05z" fill="#333"/><path d="m2039.709023 1797.06h97.05v97.05h-97.05z" fill="#fff"/><path d="m2039.709023 1700h97.05v97.06h-97.05z" fill="#fff"/><path d="m2039.709023 1602.94h97.05v97.06h-97.05z"/><path d="m2039.709023 1505.89h97.05v97.05h-97.05z" fill="#ffe900"/><path d="m2039.709023 1408.82h97.05v97.07h-97.05z" fill="#ffe900"/><path d="m2039.709023 1311.76h97.05v97.06h-97.05z" fill="#fec700"/><path d="m2039.709023 1214.7h97.05v97.06h-97.05z" fill="#fec700"/><path d="m2039.709023 1117.64h97.05v97.06h-97.05z"/><path d="m2039.709023 1020.59h97.05v97.05h-97.05z" fill="#333"/><path d="m2039.709023 923.53h97.05v97.06h-97.05z" fill="#333"/><path d="m1942.649023 3058.83h97.06v97.06h-97.06z" fill="#333"/><path d="m1942.649023 2961.77h97.06v97.06h-97.06z" fill="#fec700"/><path d="m1942.649023 2864.71h97.06v97.06h-97.06z" fill="#ffe900"/><path d="m1942.649023 2767.64h97.06v97.07h-97.06z" fill="#ffe900"/><path d="m1942.649023 2670.59h97.06v97.05h-97.06z" fill="#ffe900"/><path d="m1942.649023 2573.53h97.06v97.06h-97.06z" fill="#ffe900"/><path d="m1942.649023 2476.47h97.06v97.06h-97.06z" fill="#ffe900"/><path d="m1942.649023 2379.41h97.06v97.06h-97.06z" fill="#ffe900"/><path d="m1942.649023 2282.36h97.06v97.05h-97.06z"/><path d="m1942.649023 2185.3h97.06v97.06h-97.06z" fill="#fff"/><path d="m1942.649023 2088.23h97.06v97.07h-97.06z" fill="#fff"/><path d="m1942.649023 1991.17h97.06v97.06h-97.06z" fill="#fff"/><path d="m1942.649023 1894.11h97.06v97.06h-97.06z" fill="#fff"/><path d="m1942.649023 1797.06h97.06v97.05h-97.06z" fill="#fff"/><path d="m1942.649023 1700h97.06v97.06h-97.06z" fill="#fff"/><path d="m1942.649023 1602.94h97.06v97.06h-97.06z"/><path d="m1942.649023 1505.89h97.06v97.05h-97.06z" fill="#ffe900"/><path d="m1942.649023 1408.82h97.06v97.07h-97.06z" fill="#ffe900"/><path d="m1942.649023 1311.76h97.06v97.06h-97.06z" fill="#ffe900"/><path d="m1942.649023 1214.7h97.06v97.06h-97.06z" fill="#fec700"/><path d="m1942.649023 1117.64h97.06v97.06h-97.06z" fill="#333"/><path d="m1942.649023 1020.59h97.06v97.05h-97.06z"/><path d="m1942.649023 923.53h97.06v97.06h-97.06z" fill="#333"/><path d="m1942.649023 826.47h97.06v97.06h-97.06z" fill="#333"/><path d="m1942.649023 729.41h97.06v97.06h-97.06z" fill="#333"/><path d="m1942.649023 632.344h97.06v97.066h-97.06z" fill="#333"/><path d="m1942.649023 535.287h97.06v97.057h-97.06z" fill="#333"/><path d="m1942.649023 438.229h97.06v97.058h-97.06z" fill="#333"/><path d="m1942.649023 341.172h97.06v97.057h-97.06z" fill="#333"/><path d="m1942.649023 244.115h97.06v97.057h-97.06z" fill="#333"/><path d="m1942.649023 147.057h97.06v97.058h-97.06z" fill="#333"/><path d="m1942.649023 50h97.06v97.057h-97.06z" fill="#333"/><path d="m1845.589023 3155.89h97.06v97.05h-97.06z" fill="#333"/><path d="m1845.589023 3058.83h97.06v97.06h-97.06z" fill="#fec700"/><path d="m1845.589023 2961.77h97.06v97.06h-97.06z" fill="#ffe900"/><path d="m1845.589023 2864.71h97.06v97.06h-97.06z" fill="#ffe900"/><path d="m1845.589023 2767.64h97.06v97.07h-97.06z" fill="#ffe900"/><path d="m1845.589023 2670.59h97.06v97.05h-97.06z" fill="#333"/><path d="m1845.589023 2573.53h97.06v97.06h-97.06z" fill="#ffe900"/><path d="m1845.589023 2476.47h97.06v97.06h-97.06z" fill="#ffe900"/><path d="m1845.589023 2379.41h97.06v97.06h-97.06z" fill="#ffe900"/><path d="m1845.589023 2282.36h97.06v97.05h-97.06z" fill="#ffe900"/><path d="m1845.589023 2185.3h97.06v97.06h-97.06z"/><path d="m1845.589023 2088.23h97.06v97.07h-97.06z" fill="#fff"/><path d="m1845.589023 1991.17h97.06v97.06h-97.06z" fill="#fff"/><path d="m1845.589023 1894.11h97.06v97.06h-97.06z" fill="#fff"/><path d="m1845.589023 1797.06h97.06v97.05h-97.06z" fill="#fff"/><path d="m1845.589023 1700h97.06v97.06h-97.06z"/><path d="m1845.589023 1602.94h97.06v97.06h-97.06z" fill="#ffe900"/><path d="m1845.589023 1505.89h97.06v97.05h-97.06z" fill="#ffe900"/><path d="m1845.589023 1408.82h97.06v97.07h-97.06z" fill="#ffe900"/><path d="m1845.589023 1311.76h97.06v97.06h-97.06z" fill="#ffe900"/><path d="m1845.589023 1214.7h97.06v97.06h-97.06z" fill="#ffe900"/><path d="m1845.589023 1117.64h97.06v97.06h-97.06z" fill="#333"/><path d="m1845.589023 1020.59h97.06v97.05h-97.06z"/><path d="m1845.589023 923.53h97.06v97.06h-97.06z"/><path d="m1845.589023 826.47h97.06v97.06h-97.06z" fill="#333"/><path d="m1845.589023 729.41h97.06v97.06h-97.06z" fill="#333"/><path d="m1845.589023 632.344h97.06v97.066h-97.06z" fill="#333"/><path d="m1845.589023 535.287h97.06v97.057h-97.06z" fill="#333"/><path d="m1845.589023 438.229h97.06v97.058h-97.06z" fill="#333"/><path d="m1845.589023 341.172h97.06v97.057h-97.06z" fill="#333"/><path d="m1845.589023 244.115h97.06v97.057h-97.06z" fill="#333"/><path d="m1845.589023 147.057h97.06v97.058h-97.06z" fill="#333"/><path d="m1845.589023 50h97.06v97.057h-97.06z" fill="#333"/><path d="m1748.539023 3155.89h97.05v97.05h-97.05z" fill="#333"/><path d="m1748.539023 3058.83h97.05v97.06h-97.05z" fill="#fec700"/><path d="m1748.539023 2961.77h97.05v97.06h-97.05z" fill="#ffe900"/><path d="m1748.539023 2864.71h97.05v97.06h-97.05z" fill="#ffe900"/><path d="m1748.539023 2767.64h97.05v97.07h-97.05z" fill="#ffe900"/><path d="m1748.539023 2670.59h97.05v97.05h-97.05z" fill="#333"/><path d="m1748.539023 2573.53h97.05v97.06h-97.05z" fill="#ffe900"/><path d="m1748.539023 2476.47h97.05v97.06h-97.05z" fill="#ffe900"/><path d="m1748.539023 2379.41h97.05v97.06h-97.05z" fill="#ffe900"/><path d="m1748.539023 2282.36h97.05v97.05h-97.05z" fill="#ffe900"/><path d="m1748.539023 2185.3h97.05v97.06h-97.05z" fill="#ffe900"/><path d="m1748.539023 2088.23h97.05v97.07h-97.05z"/><path d="m1748.539023 1991.17h97.05v97.06h-97.05z"/><path d="m1748.539023 1894.11h97.05v97.06h-97.05z"/><path d="m1748.539023 1797.06h97.05v97.05h-97.05z"/><path d="m1748.539023 1700h97.05v97.06h-97.05z" fill="#ffe900"/><path d="m1748.539023 1602.94h97.05v97.06h-97.05z" fill="#ffe900"/><path d="m1748.539023 1505.89h97.05v97.05h-97.05z" fill="#ffe900"/><path d="m1748.539023 1408.82h97.05v97.07h-97.05z" fill="#ffe900"/><path d="m1748.539023 1311.76h97.05v97.06h-97.05z" fill="#ffe900"/><path d="m1748.539023 1214.7h97.05v97.06h-97.05z" fill="#ffe900"/><path d="m1748.539023 1117.64h97.05v97.06h-97.05z"/><path d="m1748.539023 1020.59h97.05v97.05h-97.05z"/><path d="m1748.539023 923.53h97.05v97.06h-97.05z"/><path d="m1748.539023 826.47h97.05v97.06h-97.05z"/><path d="m1748.539023 729.41h97.05v97.06h-97.05z"/><path d="m1748.539023 632.344h97.05v97.066h-97.05z"/><path d="m1748.539023 535.287h97.05v97.057h-97.05z" fill="#333"/><path d="m1748.539023 438.229h97.05v97.058h-97.05z"/><path d="m1748.539023 341.172h97.05v97.057h-97.05z"/><path d="m1748.539023 244.115h97.05v97.057h-97.05z" fill="#333"/><path d="m1748.539023 147.057h97.05v97.058h-97.05z" fill="#333"/><path d="m1748.539023 50h97.05v97.057h-97.05z" fill="#333"/><path d="m1651.469023 3155.89h97.07v97.05h-97.07z" fill="#333"/><path d="m1651.469023 3058.83h97.07v97.06h-97.07z" fill="#fec700"/><path d="m1651.469023 2961.77h97.07v97.06h-97.07z" fill="#ffe900"/><path d="m1651.469023 2864.71h97.07v97.06h-97.07z" fill="#ffe900"/><path d="m1651.469023 2767.64h97.07v97.07h-97.07z" fill="#ffe900"/><path d="m1651.469023 2670.59h97.07v97.05h-97.07z" fill="#333"/><g fill="#ffe900"><path d="m1651.469023 2573.53h97.07v97.06h-97.07z"/><path d="m1651.469023 2476.47h97.07v97.06h-97.07z"/><path d="m1651.469023 2379.41h97.07v97.06h-97.07z"/><path d="m1651.469023 2282.36h97.07v97.05h-97.07z"/><path d="m1651.469023 2185.3h97.07v97.06h-97.07z"/><path d="m1651.469023 2088.23h97.07v97.07h-97.07z"/><path d="m1651.469023 1991.17h97.07v97.06h-97.07z"/><path d="m1651.469023 1894.11h97.07v97.06h-97.07z"/><path d="m1651.469023 1797.06h97.07v97.05h-97.07z"/><path d="m1651.469023 1700h97.07v97.06h-97.07z"/><path d="m1651.469023 1602.94h97.07v97.06h-97.07z"/><path d="m1651.469023 1505.89h97.07v97.05h-97.07z"/><path d="m1651.469023 1408.82h97.07v97.07h-97.07z"/><path d="m1651.469023 1311.76h97.07v97.06h-97.07z"/><path d="m1651.469023 1214.7h97.07v97.06h-97.07z"/></g><path d="m1651.469023 1117.64h97.07v97.06h-97.07z"/><path d="m1651.469023 1020.59h97.07v97.05h-97.07z"/><path d="m1651.469023 923.53h97.07v97.06h-97.07z"/><path d="m1651.469023 826.47h97.07v97.06h-97.07z"/><path d="m1651.469023 729.41h97.07v97.06h-97.07z"/><path d="m1651.469023 632.344h97.07v97.066h-97.07z"/><path d="m1651.469023 535.287h97.07v97.057h-97.07z" fill="#333"/><path d="m1651.469023 438.229h97.07v97.058h-97.07z" fill="#333"/><path d="m1651.469023 341.172h97.07v97.057h-97.07z" fill="#333"/><path d="m1651.469023 244.115h97.07v97.057h-97.07z" fill="#333"/><path d="m1651.469023 147.057h97.07v97.058h-97.07z" fill="#333"/><path d="m1651.469023 50h97.07v97.057h-97.07z" fill="#333"/><path d="m1554.409023 3155.89h97.06v97.05h-97.06z" fill="#333"/><path d="m1554.409023 3058.83h97.06v97.06h-97.06z" fill="#fec700"/><path d="m1554.409023 2961.77h97.06v97.06h-97.06z" fill="#ffe900"/><path d="m1554.409023 2864.71h97.06v97.06h-97.06z" fill="#ffe900"/><path d="m1554.409023 2767.64h97.06v97.07h-97.06z" fill="#ffe900"/><path d="m1554.409023 2670.59h97.06v97.05h-97.06z" fill="#333"/><path d="m1554.409023 2573.53h97.06v97.06h-97.06z" fill="#ffe900"/><path d="m1554.409023 2476.47h97.06v97.06h-97.06z" fill="#ffe900"/><path d="m1554.409023 2379.41h97.06v97.06h-97.06z" fill="#ffe900"/><path d="m1554.409023 2282.36h97.06v97.05h-97.06z" fill="#ffe900"/><path d="m1554.409023 2185.3h97.06v97.06h-97.06z" fill="#ffe900"/><path d="m1554.409023 2088.23h97.06v97.07h-97.06z" fill="#ffe900"/><path d="m1554.409023 1991.17h97.06v97.06h-97.06z" fill="#ffe900"/><path d="m1554.409023 1894.11h97.06v97.06h-97.06z" fill="#ffe900"/><path d="m1554.409023 1797.06h97.06v97.05h-97.06z" fill="#ffe900"/><path d="m1554.409023 1700h97.06v97.06h-97.06z" fill="#ffe900"/><path d="m1554.409023 1602.94h97.06v97.06h-97.06z" fill="#ffe900"/><path d="m1554.409023 1505.89h97.06v97.05h-97.06z" fill="#ffe900"/><path d="m1554.409023 1408.82h97.06v97.07h-97.06z" fill="#ffe900"/><path d="m1554.409023 1311.76h97.06v97.06h-97.06z" fill="#ffe900"/><path d="m1554.409023 1214.7h97.06v97.06h-97.06z" fill="#ffe900"/><path d="m1554.409023 1117.64h97.06v97.06h-97.06z"/><path d="m1554.409023 1020.59h97.06v97.05h-97.06z"/><path d="m1554.409023 923.53h97.06v97.06h-97.06z"/><path d="m1554.409023 826.47h97.06v97.06h-97.06z"/><path d="m1554.409023 729.41h97.06v97.06h-97.06z"/><path d="m1554.409023 632.344h97.06v97.066h-97.06z"/><path d="m1554.409023 535.287h97.06v97.057h-97.06z"/><path d="m1554.409023 438.229h97.06v97.058h-97.06z"/><path d="m1554.409023 341.172h97.06v97.057h-97.06z"/><path d="m1554.409023 244.115h97.06v97.057h-97.06z"/><path d="m1554.409023 147.057h97.06v97.058h-97.06z"/><path d="m1554.409023 50h97.06v97.057h-97.06z"/><path d="m1457.349023 3155.89h97.06v97.05h-97.06z" fill="#333"/><path d="m1457.349023 3058.83h97.06v97.06h-97.06z" fill="#fec700"/><path d="m1457.349023 2961.77h97.06v97.06h-97.06z" fill="#fec700"/><path d="m1457.349023 2864.71h97.06v97.06h-97.06z" fill="#ffe900"/><path d="m1457.349023 2767.64h97.06v97.07h-97.06z" fill="#ffe900"/><path d="m1457.349023 2670.59h97.06v97.05h-97.06z" fill="#333"/><path d="m1457.349023 2573.53h97.06v97.06h-97.06z" fill="#ffe900"/><path d="m1457.349023 2476.47h97.06v97.06h-97.06z" fill="#ffe900"/><path d="m1457.349023 2379.41h97.06v97.06h-97.06z" fill="#ffe900"/><path d="m1457.349023 2282.36h97.06v97.05h-97.06z" fill="#ffe900"/><path d="m1457.349023 2185.3h97.06v97.06h-97.06z" fill="#ffe900"/><path d="m1457.349023 2088.23h97.06v97.07h-97.06z" fill="#ffe900"/><path d="m1457.349023 1991.17h97.06v97.06h-97.06z" fill="#ffe900"/><path d="m1457.349023 1894.11h97.06v97.06h-97.06z" fill="#ffe900"/><path d="m1457.349023 1797.06h97.06v97.05h-97.06z" fill="#ffe900"/><path d="m1457.349023 1700h97.06v97.06h-97.06z" fill="#ffe900"/><path d="m1457.349023 1602.94h97.06v97.06h-97.06z" fill="#ffe900"/><path d="m1457.349023 1505.89h97.06v97.05h-97.06z" fill="#333"/><path d="m1457.349023 1408.82h97.06v97.07h-97.06z" fill="#ffe900"/><path d="m1457.349023 1311.76h97.06v97.06h-97.06z" fill="#ffe900"/><path d="m1457.349023 1214.7h97.06v97.06h-97.06z" fill="#ffe900"/><path d="m1457.349023 1117.64h97.06v97.06h-97.06z"/><path d="m1457.349023 1020.59h97.06v97.05h-97.06z"/><path d="m1457.349023 923.53h97.06v97.06h-97.06z"/><path d="m1457.349023 826.47h97.06v97.06h-97.06z"/><path d="m1457.349023 729.41h97.06v97.06h-97.06z"/><path d="m1457.349023 632.344h97.06v97.066h-97.06z"/><path d="m1457.349023 535.287h97.06v97.057h-97.06z"/><path d="m1457.349023 438.229h97.06v97.058h-97.06z"/><path d="m1457.349023 341.172h97.06v97.057h-97.06z"/><path d="m1457.349023 244.115h97.06v97.057h-97.06z"/><path d="m1457.349023 147.057h97.06v97.058h-97.06z"/><path d="m1457.349023 50h97.06v97.057h-97.06z"/><path d="m1360.289023 3058.83h97.06v97.06h-97.06z" fill="#333"/><path d="m1360.289023 2961.77h97.06v97.06h-97.06z" fill="#fec700"/><path d="m1360.289023 2864.71h97.06v97.06h-97.06z" fill="#ffe900"/><path d="m1360.289023 2767.64h97.06v97.07h-97.06z" fill="#ffe900"/><path d="m1360.289023 2670.59h97.06v97.05h-97.06z" fill="#ffe900"/><path d="m1360.289023 2573.53h97.06v97.06h-97.06z" fill="#333"/><path d="m1360.289023 2476.47h97.06v97.06h-97.06z" fill="#ffe900"/><path d="m1360.289023 2379.41h97.06v97.06h-97.06z" fill="#ffe900"/><path d="m1360.289023 2282.36h97.06v97.05h-97.06z" fill="#ffe900"/><path d="m1360.289023 2185.3h97.06v97.06h-97.06z" fill="#ffe900"/><path d="m1360.289023 2088.23h97.06v97.07h-97.06z" fill="#ffe900"/><path d="m1360.289023 1991.17h97.06v97.06h-97.06z" fill="#ffe900"/><path d="m1360.289023 1894.11h97.06v97.06h-97.06z" fill="#333"/><path d="m1360.289023 1797.06h97.06v97.05h-97.06z" fill="#333"/><path d="m1360.289023 1700h97.06v97.06h-97.06z" fill="#333"/><path d="m1360.289023 1602.94h97.06v97.06h-97.06z" fill="#ffe900"/><path d="m1360.289023 1505.89h97.06v97.05h-97.06z" fill="#ffe900"/><path d="m1360.289023 1408.82h97.06v97.07h-97.06z" fill="#333"/><path d="m1360.289023 1311.76h97.06v97.06h-97.06z" fill="#ffe900"/><path d="m1360.289023 1214.7h97.06v97.06h-97.06z" fill="#fec700"/><path d="m1360.289023 1117.64h97.06v97.06h-97.06z"/><path d="m1360.289023 1020.59h97.06v97.05h-97.06z"/><path d="m1360.289023 923.53h97.06v97.06h-97.06z"/><path d="m1360.289023 826.47h97.06v97.06h-97.06z"/><path d="m1360.289023 729.41h97.06v97.06h-97.06z"/><path d="m1360.289023 632.344h97.06v97.066h-97.06z"/><path d="m1360.289023 535.287h97.06v97.057h-97.06z"/><path d="m1360.289023 438.229h97.06v97.058h-97.06z"/><path d="m1360.289023 341.172h97.06v97.057h-97.06z"/><path d="m1360.289023 244.115h97.06v97.057h-97.06z"/><path d="m1360.289023 147.057h97.06v97.058h-97.06z"/><path d="m1360.289023 50h97.06v97.057h-97.06z"/><path d="m1263.239023 3058.83h97.05v97.06h-97.05z" fill="#333"/><path d="m1263.239023 2961.77h97.05v97.06h-97.05z" fill="#fec700"/><path d="m1263.239023 2864.71h97.05v97.06h-97.05z" fill="#fec700"/><path d="m1263.239023 2767.64h97.05v97.07h-97.05z" fill="#ffe900"/><path d="m1263.239023 2670.59h97.05v97.05h-97.05z" fill="#ffe900"/><path d="m1263.239023 2573.53h97.05v97.06h-97.05z" fill="#ffe900"/><path d="m1263.239023 2476.47h97.05v97.06h-97.05z" fill="#ffe900"/><path d="m1263.239023 2379.41h97.05v97.06h-97.05z" fill="#ffe900"/><path d="m1263.239023 2282.36h97.05v97.05h-97.05z" fill="#ffe900"/><path d="m1263.239023 2185.3h97.05v97.06h-97.05z" fill="#ffe900"/><path d="m1263.239023 2088.23h97.05v97.07h-97.05z" fill="#ffe900"/><path d="m1263.239023 1991.17h97.05v97.06h-97.05z" fill="#ffe900"/><path d="m1263.239023 1894.11h97.05v97.06h-97.05z" fill="#333"/><path d="m1263.239023 1797.06h97.05v97.05h-97.05z" fill="#333"/><path d="m1263.239023 1700h97.05v97.06h-97.05z" fill="#333"/><path d="m1263.239023 1602.94h97.05v97.06h-97.05z" fill="#ffe900"/><path d="m1263.239023 1505.89h97.05v97.05h-97.05z" fill="#ffe900"/><path d="m1263.239023 1408.82h97.05v97.07h-97.05z" fill="#333"/><path d="m1263.239023 1311.76h97.05v97.06h-97.05z" fill="#ffe900"/><path d="m1263.239023 1214.7h97.05v97.06h-97.05z" fill="#fec700"/><path d="m1263.239023 1117.64h97.05v97.06h-97.05z"/><path d="m1263.239023 1020.59h97.05v97.05h-97.05z"/><path d="m1263.239023 923.53h97.05v97.06h-97.05z"/><path d="m1166.179023 2961.77h97.06v97.06h-97.06z" fill="#333"/><path d="m1166.179023 2864.71h97.06v97.06h-97.06z" fill="#fec700"/><path d="m1166.179023 2767.64h97.06v97.07h-97.06z" fill="#ffe900"/><path d="m1166.179023 2670.59h97.06v97.05h-97.06z" fill="#ffe900"/><path d="m1166.179023 2573.53h97.06v97.06h-97.06z" fill="#ffe900"/><path d="m1166.179023 2476.47h97.06v97.06h-97.06z" fill="#ffe900"/><path d="m1166.179023 2379.41h97.06v97.06h-97.06z" fill="#ffe900"/><path d="m1166.179023 2282.36h97.06v97.05h-97.06z" fill="#ffe900"/><path d="m1166.179023 2185.3h97.06v97.06h-97.06z" fill="#ffe900"/><path d="m1166.179023 2088.23h97.06v97.07h-97.06z" fill="#ffe900"/><path d="m1166.179023 1991.17h97.06v97.06h-97.06z" fill="#ffe900"/><path d="m1166.179023 1894.11h97.06v97.06h-97.06z" fill="#ffe900"/><path d="m1166.179023 1797.06h97.06v97.05h-97.06z" fill="#ffe900"/><path d="m1166.179023 1700h97.06v97.06h-97.06z" fill="#ffe900"/><path d="m1166.179023 1602.94h97.06v97.06h-97.06z" fill="#ffe900"/><path d="m1166.179023 1505.89h97.06v97.05h-97.06z" fill="#333"/><path d="m1166.179023 1408.82h97.06v97.07h-97.06z" fill="#ffe900"/><path d="m1166.179023 1311.76h97.06v97.06h-97.06z" fill="#fec700"/><path d="m1166.179023 1214.7h97.06v97.06h-97.06z" fill="#333"/><path d="m1166.179023 1117.64h97.06v97.06h-97.06z"/><path d="m1166.179023 1020.59h97.06v97.05h-97.06z"/><path d="m1166.179023 923.53h97.06v97.06h-97.06z"/><path d="m1069.119023 2961.77h97.06v97.06h-97.06z" fill="#333"/><path d="m1069.119023 2864.71h97.06v97.06h-97.06z" fill="#fec700"/><path d="m1069.119023 2767.64h97.06v97.07h-97.06z" fill="#fec700"/><path d="m1069.119023 2670.59h97.06v97.05h-97.06z" fill="#ffe900"/><path d="m1069.119023 2573.53h97.06v97.06h-97.06z" fill="#ffe900"/><path d="m1069.119023 2476.47h97.06v97.06h-97.06z" fill="#ffe900"/><path d="m1069.119023 2379.41h97.06v97.06h-97.06z" fill="#ffe900"/><path d="m1069.119023 2282.36h97.06v97.05h-97.06z" fill="#ffe900"/><path d="m1069.119023 2185.3h97.06v97.06h-97.06z" fill="#ffe900"/><path d="m1069.119023 2088.23h97.06v97.07h-97.06z" fill="#ffe900"/><path d="m1069.119023 1991.17h97.06v97.06h-97.06z" fill="#ffe900"/><path d="m1069.119023 1894.11h97.06v97.06h-97.06z" fill="#ffe900"/><path d="m1069.119023 1797.06h97.06v97.05h-97.06z" fill="#ffe900"/><path d="m1069.119023 1700h97.06v97.06h-97.06z" fill="#ffe900"/><path d="m1069.119023 1602.94h97.06v97.06h-97.06z" fill="#ffe900"/><path d="m1069.119023 1505.89h97.06v97.05h-97.06z" fill="#ffe900"/><path d="m1069.119023 1408.82h97.06v97.07h-97.06z" fill="#ffe900"/><path d="m1069.119023 1311.76h97.06v97.06h-97.06z" fill="#fec700"/><path d="m1069.119023 1214.7h97.06v97.06h-97.06z" fill="#333"/><path d="m1069.119023 1020.59h97.06v97.05h-97.06z"/><path d="m972.049023 2864.71h97.07v97.06h-97.07z" fill="#333"/><path d="m972.049023 2767.64h97.07v97.07h-97.07z" fill="#fec700"/><path d="m972.049023 2670.59h97.07v97.05h-97.07z" fill="#fec700"/><path d="m972.049023 2573.53h97.07v97.06h-97.07z" fill="#ffe900"/><path d="m972.049023 2476.47h97.07v97.06h-97.07z" fill="#ffe900"/><path d="m972.049023 2379.41h97.07v97.06h-97.07z" fill="#ffe900"/><path d="m972.049023 2282.36h97.07v97.05h-97.07z" fill="#ffe900"/><path d="m972.049023 2185.3h97.07v97.06h-97.07z" fill="#ffe900"/><path d="m972.049023 2088.23h97.07v97.07h-97.07z" fill="#ffe900"/><path d="m972.049023 1991.17h97.07v97.06h-97.07z" fill="#ffe900"/><path d="m972.049023 1894.11h97.07v97.06h-97.07z" fill="#ffe900"/><path d="m972.049023 1797.06h97.07v97.05h-97.07z" fill="#ffe900"/><path d="m972.049023 1700h97.07v97.06h-97.07z" fill="#ffe900"/><path d="m972.049023 1602.94h97.07v97.06h-97.07z" fill="#ffe900"/><path d="m972.049023 1505.89h97.07v97.05h-97.07z" fill="#ffe900"/><path d="m972.049023 1408.82h97.07v97.07h-97.07z" fill="#fec700"/><path d="m972.049023 1311.76h97.07v97.06h-97.07z" fill="#333"/><path d="m874.989023 2767.64h97.06v97.07h-97.06z" fill="#333"/><path d="m874.989023 2670.59h97.06v97.05h-97.06z" fill="#fec700"/><path d="m874.989023 2573.53h97.06v97.06h-97.06z" fill="#fec700"/><path d="m874.989023 2476.47h97.06v97.06h-97.06z" fill="#ffe900"/><path d="m874.989023 2379.41h97.06v97.06h-97.06z" fill="#ffe900"/><path d="m874.989023 2282.36h97.06v97.05h-97.06z" fill="#ffe900"/><path d="m874.989023 2185.3h97.06v97.06h-97.06z" fill="#ffe900"/><path d="m874.989023 2088.23h97.06v97.07h-97.06z" fill="#ffe900"/><path d="m874.989023 1991.17h97.06v97.06h-97.06z" fill="#ffe900"/><path d="m874.989023 1894.11h97.06v97.06h-97.06z" fill="#ffe900"/><path d="m874.989023 1797.06h97.06v97.05h-97.06z" fill="#ffe900"/><path d="m874.989023 1700h97.06v97.06h-97.06z" fill="#ffe900"/><path d="m874.989023 1602.94h97.06v97.06h-97.06z" fill="#fec700"/><path d="m874.989023 1505.89h97.06v97.05h-97.06z" fill="#fec700"/><path d="m874.989023 1408.82h97.06v97.07h-97.06z" fill="#333"/><path d="m777.939023 2670.59h97.05v97.05h-97.05z" fill="#333"/><path d="m777.939023 2573.53h97.05v97.06h-97.05z" fill="#333"/><path d="m777.939023 2476.47h97.05v97.06h-97.05z" fill="#fec700"/><path d="m777.939023 2379.41h97.05v97.06h-97.05z" fill="#fec700"/><path d="m777.939023 2282.36h97.05v97.05h-97.05z" fill="#ffe900"/><path d="m777.939023 2185.3h97.05v97.06h-97.05z" fill="#ffe900"/><path d="m777.939023 2088.23h97.05v97.07h-97.05z" fill="#ffe900"/><path d="m777.939023 1991.17h97.05v97.06h-97.05z" fill="#ffe900"/><path d="m777.939023 1894.11h97.05v97.06h-97.05z" fill="#ffe900"/><path d="m777.939023 1797.06h97.05v97.05h-97.05z" fill="#fec700"/><path d="m777.939023 1700h97.05v97.06h-97.05z" fill="#fec700"/><path d="m777.939023 1602.94h97.05v97.06h-97.05z" fill="#333"/><path d="m777.939023 1505.89h97.05v97.05h-97.05z" fill="#333"/><path d="m680.878023 2476.47h97.061v97.06h-97.061z" fill="#333"/><path d="m680.878023 2379.41h97.061v97.06h-97.061z" fill="#333"/><path d="m680.878023 2282.36h97.061v97.05h-97.061z" fill="#fec700"/><path d="m680.878023 2185.3h97.061v97.06h-97.061z" fill="#fec700"/><path d="m680.878023 2088.23h97.061v97.07h-97.061z" fill="#fec700"/><path d="m680.878023 1991.17h97.061v97.06h-97.061z" fill="#fec700"/><path d="m680.878023 1894.11h97.061v97.06h-97.061z" fill="#fec700"/><path d="m680.878023 1797.06h97.061v97.05h-97.061z" fill="#333"/><path d="m680.878023 1700h97.061v97.06h-97.061z" fill="#333"/><path d="m583.821023 2282.36h97.057v97.05h-97.057z" fill="#333"/><path d="m583.821023 2185.3h97.057v97.06h-97.057z" fill="#333"/><path d="m583.821023 2088.23h97.057v97.07h-97.057z" fill="#333"/><path d="m583.821023 1991.17h97.057v97.06h-97.057z" fill="#333"/><path d="m583.821023 1894.11h97.057v97.06h-97.057z" fill="#333"/></g></svg>