<svg clip-rule="evenodd" fill-rule="evenodd" stroke-linejoin="round" stroke-miterlimit="2" viewBox="0 0 3400 3400" xmlns="http://www.w3.org/2000/svg"><g transform="translate(-297.621494 -296.98)"><path d="m3019.12 2194.11h97.06v485.3h-97.06zm0 485.3v194.12h-97.06v-194.12zm-194.11 388.23v97.07h-97.06v-97.07zm-97.06 97.07v97.06h-97.07v-97.06zm194.11-291.18v194.11h-97.05v-194.11zm-291.18-1261.77h-194.12v-97.06h194.12zm291.18 388.24h97.06v194.11h-97.06zm-291.18-388.24h97.07v97.06h-97.07zm194.13 194.13h97.05v194.11h-97.05zm-97.06-97.07h97.06v97.07h-97.06zm-1747.071 970.59h-97.057v-485.3h97.057zm194.111-873.52v-97.07h97.06v97.07zm1067.66 1650v-97.06h194.11v97.06zm-1164.71-1455.89v-194.11h97.05v194.11zm-97.061 194.11v-194.11h97.061v194.11zm388.241-582.35v-97.06h194.12v97.06zm1067.64 1747.07v-97.06h97.06v97.06zm-1164.71-1650.01v-97.06h97.07v97.06zm485.3 1747.07h485.3v97.05h-485.3zm-194.11-97.06h194.11v97.06h-194.11zm-194.12-97.06h194.12v97.06h-194.12zm-97.07-97.06h97.07v97.06h-97.07zm-97.06-97.07h97.06v97.07h-97.06zm-97.05-194.11h97.05v194.11h-97.05zm-97.061-194.12h97.061v194.12h-97.061zm1358.831-1261.77v97.06h-194.12v-97.06zm0 0v-97.05h-97.06v-97.06h-97.06v-291.186h-194.12v-582.344h388.24v873.53h97.05v97.06h97.06v97.05zm-291.17-582.353h97.05v-194.115h-97.05zm-291.19 2135.303h-97.06v-97.06h97.06zm0 0h485.3v97.05h-485.3zm-194.11-1164.7v-97.07h194.11v97.07zm194.11 0h97.06v97.05h-97.06zm-194.11 0v97.05h-97.06v-97.05zm776.47 582.34v-194.12h194.11v194.12zm-776.47-97.06v-291.17h194.11v291.17z" fill="#333"/><path d="m2922.06 2679.41v194.12h-97.05v-194.12zm-97.05 194.12v194.11h-97.06v-194.11zm0-873.53h-97.06v-97.06h-97.07v-97.05h-97.06v-97.07h-194.11v-97.06h-97.06v-97.06h194.11v97.06h194.12v97.06h97.07v97.07h97.06zm-97.06 1067.64v97.07h-97.07v-97.07zm97.06-1067.64h97.05v194.11h97.06v485.3h-97.06v-388.24h-97.05zm-582.36 1358.83v-97.06h194.11v97.06zm-1067.66-485.3h97.06v97.06h97.07v97.05h97.06v97.07h194.11v97.06h194.12v97.06h388.24v97.06h-485.3v-97.06h-194.11v-97.06h-194.12v-97.06h-97.07v-97.07h-97.06zm-97.05-194.12h-97.061v-485.3h97.061zm0 0h97.05v194.12h-97.05zm1358.82 582.36v-97.06h97.06v97.06zm-1261.77-1261.77v-194.11h97.06v194.11zm-97.05 194.11v-194.11h97.05v194.11zm485.3-582.35v-97.06h194.11v97.06zm-194.12 97.06v-97.06h194.12v97.06zm-97.07 97.07v-97.07h97.07v97.07z" fill="#fec700"/><path d="m2630.88 3067.64v-485.28h97.07v-97.06h97.06v-194.13h97.05v388.24h-97.05v194.12h-97.06v194.11zm97.07-1067.64h97.06v97.06h-97.06zm-873.54 1261.77h-194.12v-97.06h-194.11v-97.07h-97.06v-97.05h-97.07v-97.06h-97.06v-194.12h-97.05v-485.3h97.05v-194.11h97.06v-194.11h97.07v-97.07h194.12v97.07h-97.06v97.05h97.06v-97.05h194.11v97.05h97.06v-97.05h-97.06v-97.07h-194.11v-97.06h194.11v-97.06h485.3v97.06h97.06v97.06h194.11v97.07h97.06v97.05h-388.23v97.06h-97.06v97.06h-97.05v388.24h97.05v97.06h97.06v97.05h291.17v485.3h-97.06v97.06h-194.11v97.06h-388.24zm388.24-291.18h-485.3v-97.06h-97.06v97.06h97.06v97.05h485.3zm388.23-1067.65h97.07v97.06h-97.07zm-873.53 97.06h-194.11v291.17h194.11z" fill="#ffe900"/><path d="m2145.59 2485.3h-97.05v-388.24h97.05zm0-388.24v-97.06h97.06v97.06zm97.06-97.06v-97.06h388.23v97.06zm388.23 0h97.07v97.06h-97.07zm97.07 97.06h97.06v388.24h-97.06zm0 388.24v97.06h-97.07v-97.06zm-97.07 97.06v970.58h-97.06v-873.53h-291.17v-97.05zm-388.23 0h-97.06v-97.06h97.06zm291.17 970.58v97.06h-97.06v-97.06zm-194.11-2135.3h-194.12v97.06h-679.41v-97.06h-97.06v-97.05h97.06v-97.06h194.11v-873.53h291.18v582.344h194.12v291.186h97.06v97.06h97.06zm194.11-97.05h-97.06v-97.06h97.06zm-194.11 97.05h194.11v97.06h-194.11zm194.11 0v-97.05h97.06v97.05zm-485.28-582.353v-194.115h97.05v194.115z"/><path d="m2145.59 2485.3v-388.24h97.06v-97.06h388.23v97.06h97.07v388.24h-97.07v97.06h-388.23v-97.06zm388.23-291.19h-194.11v194.12h194.11z" fill="#fff"/></g></svg>